<svg width="317" height="398" viewBox="0 0 317 398" fill="none" xmlns="http://www.w3.org/2000/svg">
<path d="M351.405 156.507C340.742 154.217 329.699 152.035 318.543 149.975C251.145 137.533 179.18 129.5 161.243 129.5C124.612 129.5 92.7431 162.446 92.7431 199C92.7431 235.593 122.407 265.257 159 265.257C176.919 265.257 249.43 258.041 317.395 246.408C329.058 244.412 340.6 242.283 351.72 240.037C332.84 329.14 253.728 396 159 396C50.1999 396 -38 307.8 -38 199C-38 90.1999 50.1999 2 159 2C253.211 2 331.976 68.1322 351.405 156.507ZM360 199C360 186.263 358.815 173.803 356.55 161.723C375.721 165.973 393.404 170.559 407.978 175.38C420.006 179.359 429.808 183.464 436.566 187.615C439.945 189.691 442.474 191.725 444.139 193.688C445.798 195.644 446.5 197.406 446.5 199C446.5 200.586 445.797 202.331 444.126 204.261C442.45 206.199 439.901 208.199 436.492 210.232C429.675 214.297 419.787 218.277 407.654 222.104C393.211 226.661 375.743 230.954 356.802 234.909C358.903 223.258 360 211.257 360 199Z" stroke="url(#paint0_linear_378_1282)" stroke-width="4"/>
<defs>
<linearGradient id="paint0_linear_378_1282" x1="159" y1="-110" x2="159" y2="501.5" gradientUnits="userSpaceOnUse">
<stop stop-color="#A80000" stop-opacity="0"/>
<stop offset="0.494704" stop-color="#A80000"/>
<stop offset="1" stop-color="#A80000" stop-opacity="0"/>
</linearGradient>
</defs>
</svg>
