<svg width="11" height="3" viewBox="0 0 11 3" fill="none" xmlns="http://www.w3.org/2000/svg">
<path d="M2.00342 1.5C2.00342 2.05228 1.5557 2.5 1.00342 2.5C0.451133 2.5 0.00341797 2.05228 0.00341797 1.5C0.00341797 0.947715 0.451133 0.5 1.00342 0.5C1.5557 0.5 2.00342 0.947715 2.00342 1.5Z" fill="#999999"/>
<path d="M6.00342 1.5C6.00342 2.05228 5.5557 2.5 5.00342 2.5C4.45113 2.5 4.00342 2.05228 4.00342 1.5C4.00342 0.947715 4.45113 0.5 5.00342 0.5C5.5557 0.5 6.00342 0.947715 6.00342 1.5Z" fill="#999999"/>
<path d="M10.0034 1.5C10.0034 2.05228 9.5557 2.5 9.00342 2.5C8.45113 2.5 8.00342 2.05228 8.00342 1.5C8.00342 0.947715 8.45113 0.5 9.00342 0.5C9.5557 0.5 10.0034 0.947715 10.0034 1.5Z" fill="#999999"/>
</svg>
