<svg width="14" height="13" viewBox="0 0 14 13" fill="none" xmlns="http://www.w3.org/2000/svg">
<path d="M1.09211 7.21905C0.735027 6.8282 0.453762 6.35843 0.266021 5.8393C0.0782807 5.32018 -0.0118681 4.76295 0.00125154 4.20271C0.0143712 3.64247 0.130475 3.09135 0.342252 2.58407C0.554029 2.07678 0.856891 1.62431 1.23177 1.25515C1.60664 0.885988 2.04541 0.608135 2.52044 0.439087C2.99548 0.270038 3.49648 0.213456 3.99191 0.272903C4.48733 0.33235 4.96645 0.506538 5.39909 0.784499C5.83173 1.06246 6.20852 1.43817 6.50573 1.88798C6.80422 1.44144 7.18145 1.06901 7.61379 0.793997C8.04613 0.518986 8.52428 0.347314 9.01832 0.289725C9.51236 0.232136 10.0116 0.28987 10.4849 0.459313C10.9582 0.628756 11.3953 0.90626 11.7689 1.27446C12.1424 1.64266 12.4444 2.09362 12.6559 2.59913C12.8674 3.10464 12.9838 3.65381 12.998 4.21227C13.0121 4.77073 13.0981 6.40585 11.5491 7.82793C10 9.25 6.50573 12.75 6.50573 12.75" fill="url(#paint0_radial_381_1892)"/>
<defs>
<radialGradient id="paint0_radial_381_1892" cx="0" cy="0" r="1" gradientUnits="userSpaceOnUse" gradientTransform="translate(6.50172 6.5) rotate(90) scale(16.5 17.1645)">
<stop stop-color="#A80000"/>
<stop offset="1" stop-color="#A80000" stop-opacity="0"/>
</radialGradient>
</defs>
</svg>
